<?xml version="1.0" encoding="UTF-8"?>
<!DOCTYPE svg PUBLIC "-//W3C//DTD SVG 1.1//EN" "http://www.w3.org/Graphics/SVG/1.1/DTD/svg11.dtd">
<!-- Creator: CorelDRAW 2021 (64-Bit) -->
<svg xmlns="http://www.w3.org/2000/svg" xml:space="preserve" width="4.9264mm" height="9.6528mm" version="1.1" style="shape-rendering:geometricPrecision; text-rendering:geometricPrecision; image-rendering:optimizeQuality; fill-rule:evenodd; clip-rule:evenodd"
viewBox="0 0 58.76 115.13"
 xmlns:xlink="http://www.w3.org/1999/xlink"
 xmlns:xodm="http://www.corel.com/coreldraw/odm/2003">
 <defs>
  <style type="text/css">
   <![CDATA[
    .str1 {stroke:#373435;stroke-width:2.39;stroke-miterlimit:22.9256}
    .str0 {stroke:#C1893E;stroke-width:2.39;stroke-miterlimit:22.9256}
    .fil0 {fill:none}
    .fil1 {fill:#C1893E}
   ]]>
  </style>
 </defs>
 <g id="Capa_x0020_1">
  <metadata id="CorelCorpID_0Corel-Layer"/>
  <path class="fil0 str0" d="M29.38 1.19c-15.57,0 -28.19,25.24 -28.19,56.37 0,31.13 12.62,56.37 28.19,56.37 15.57,0 28.19,-25.24 28.19,-56.37 0,-31.13 -12.62,-56.37 -28.19,-56.37z"/>
  <line class="fil0 str1" x1="29.38" y1="113.94" x2="29.38" y2= "1.19" />
  <path class="fil1 str1" d="M29.38 113.94l0 -112.74c-15.57,0 -28.19,25.24 -28.19,56.37 0,31.13 12.62,56.37 28.19,56.37z"/>
  <path class="fil1 str1" d="M29.38 1.19l0 112.74c15.57,0 28.19,-25.24 28.19,-56.37 0,-31.13 -12.62,-56.37 -28.19,-56.37z"/>
 </g>
</svg>
