<?xml version="1.0" encoding="UTF-8"?>
<!DOCTYPE svg PUBLIC "-//W3C//DTD SVG 1.1//EN" "http://www.w3.org/Graphics/SVG/1.1/DTD/svg11.dtd">
<!-- Creator: CorelDRAW 2021 (64-Bit) -->
<svg xmlns="http://www.w3.org/2000/svg" xml:space="preserve" width="40.789mm" height="9.6528mm" version="1.1" style="shape-rendering:geometricPrecision; text-rendering:geometricPrecision; image-rendering:optimizeQuality; fill-rule:evenodd; clip-rule:evenodd"
viewBox="0 0 23656.9 5598.45"
 xmlns:xlink="http://www.w3.org/1999/xlink"
 xmlns:xodm="http://www.corel.com/coreldraw/odm/2003">
 <defs>
  <style type="text/css">
   <![CDATA[
    .str1 {stroke:#373435;stroke-width:116;stroke-miterlimit:22.9256}
    .str0 {stroke:#C1893E;stroke-width:116;stroke-miterlimit:22.9256}
    .fil1 {fill:none}
    .fil2 {fill:#C1893E}
    .fil0 {fill:#373435;fill-rule:nonzero}
   ]]>
  </style>
 </defs>
 <g id="Capa_x0020_1">
  <metadata id="CorelCorpID_0Corel-Layer"/>
  <path class="fil0" d="M4636.32 4092.76l0 -873.63 1183.92 0 0 -411.5 -1183.92 0 0 -644.24 1251.43 0 0 -428.43 -1696.68 0 0 2357.8 445.25 0zm3653.02 -30.39l-715.12 -806.12c448.62,-91.12 597.03,-418.28 597.03,-743.77 0,-409.82 -293.41,-780.89 -849.96,-784.25 -374.44,3.36 -748.82,0 -1123.25,0l0 2364.53 445.25 0 0 -789.3 428.37 0 688.09 789.3 529.58 0 0 -30.39zm-968.05 -1919.28c279.96,0 404.77,189.48 404.77,379.48 0,190 -121.45,379.48 -404.77,379.48l-678 0 0 -758.96 678 0zm3025.59 1949.67l485.74 0 -1059.11 -2364.53 -485.74 0 -1059.16 2364.53 482.37 0 202.36 -445.25 1234.55 0 198.99 445.25zm-377.74 -860.11l-876.99 0 438.47 -1007.43 438.52 1007.43zm2840.06 -1113.16c-178.75,-364.29 -559.91,-468.8 -927.57,-468.8 -435.16,3.36 -914.11,202.36 -914.11,688.09 0,529.52 445.25,657.76 927.57,715.06 313.71,33.75 546.46,124.81 546.46,347.41 0,256.35 -263.08,354.2 -543.04,354.2 -286.74,0 -559.91,-114.72 -664.49,-374.44l-371.07 192.26c175.39,431.8 546.46,580.21 1028.83,580.21 526.16,0 991.65,-226.02 991.65,-752.24 0,-563.28 -458.71,-691.45 -951.23,-752.18 -283.32,-33.75 -526.16,-91.06 -526.16,-296.83 0,-175.39 158.51,-313.65 489.04,-313.65 256.41,0 479.01,128.18 559.97,263.08l354.14 -182.17zm2195.87 1369.45c-155.15,155.2 -387.89,239.53 -593.67,239.53 -583.52,0 -809.54,-408.13 -812.9,-799.45 -3.36,-394.62 242.9,-819.63 812.9,-819.63 205.78,0 414.92,70.82 570.06,222.6l296.83 -286.69c-242.9,-239.47 -546.46,-360.92 -866.9,-360.92 -853.39,0 -1254.73,627.42 -1251.37,1244.64 3.36,613.91 374.38,1217.67 1251.37,1217.67 340.68,0 654.39,-111.3 897.23,-350.77l-303.56 -306.98zm2604 603.82l0 -2357.8 -441.89 0 0 995.08 -1160.37 0 0 -995.08 -445.19 0 0 2357.8 445.19 0 0 -951.23 1160.37 0 0 951.23 441.89 0zm863.48 0l0 -2364.53 -441.89 0 0 2364.53 441.89 0zm1969.85 -898.39l-1156.95 -1466.14 -360.92 0 0 2364.53 445.25 0 0 -1594.37 1241.28 1594.37 0 0 276.59 0 0 -2364.53 -445.25 0 0 1466.14zm2728.82 898.39l485.68 0 -1059.11 -2364.53 -485.74 0 -1059.11 2364.53 482.31 0 202.41 -445.25 1234.49 0 199.05 445.25zm-377.8 -860.11l-876.99 0 438.47 -1007.43 438.52 1007.43z"/>
  <path class="fil1 str0" d="M1428.61 58c-756.99,0 -1370.61,1227.3 -1370.61,2741.23 0,1513.93 613.62,2741.23 1370.61,2741.23 756.93,0 1370.61,-1227.3 1370.61,-2741.23 0,-1513.93 -613.68,-2741.23 -1370.61,-2741.23z"/>
  <line class="fil1 str1" x1="1428.61" y1="5540.46" x2="1428.61" y2= "58" />
  <path class="fil2 str1" d="M1428.61 5540.46l0 -5482.46c-756.99,0 -1370.61,1227.3 -1370.61,2741.23 0,1513.93 613.62,2741.23 1370.61,2741.23z"/>
  <path class="fil2 str1" d="M1428.61 58l0 5482.46c756.93,0 1370.61,-1227.3 1370.61,-2741.23 0,-1513.93 -613.68,-2741.23 -1370.61,-2741.23z"/>
 </g>
</svg>
